<?xml version="1.0" encoding="UTF-8" standalone="no"?>
<!-- Created with Inkscape (http://www.inkscape.org/) -->

<svg
   width="297mm"
   height="210mm"
   viewBox="0 0 297 210"
   version="1.1"
   id="svg5"
   inkscape:version="1.2.2 (732a01da63, 2022-12-09)"
   sodipodi:docname="kolam-toren-step-3.svg"
   xmlns:inkscape="http://www.inkscape.org/namespaces/inkscape"
   xmlns:sodipodi="http://sodipodi.sourceforge.net/DTD/sodipodi-0.dtd"
   xmlns="http://www.w3.org/2000/svg"
   xmlns:svg="http://www.w3.org/2000/svg">
  <sodipodi:namedview
     id="namedview7"
     pagecolor="#ffffff"
     bordercolor="#000000"
     borderopacity="0.25"
     inkscape:showpageshadow="2"
     inkscape:pageopacity="0.0"
     inkscape:pagecheckerboard="0"
     inkscape:deskcolor="#d1d1d1"
     inkscape:document-units="mm"
     showgrid="false"
     inkscape:zoom="0.74564394"
     inkscape:cx="628.98654"
     inkscape:cy="382.21996"
     inkscape:window-width="1920"
     inkscape:window-height="1017"
     inkscape:window-x="-8"
     inkscape:window-y="-8"
     inkscape:window-maximized="1"
     inkscape:current-layer="layer1" />
  <defs
     id="defs2">
    <rect
       x="118.0188"
       y="81.808484"
       width="544.49581"
       height="519.01448"
       id="rect251" />
  </defs>
  <g
     inkscape:label="Layer 1"
     inkscape:groupmode="layer"
     id="layer1">
    <path
       style="fill:#000000;stroke-width:0.264583"
       id="path108"
       d="m 186.66956,35.668709 c 0.16177,9.675516 0.36194,19.350648 0.51577,29.026537 0.20572,18.00307 0.17343,36.007624 0.15276,54.011504 -0.0652,11.97163 -0.003,23.94304 0.059,35.91449 0.022,2.98989 0.0215,5.97984 0.0155,8.96977 0,0 3.35515,1.70524 3.35515,1.70524 v 0 c -0.0669,-3.01872 -0.13121,-6.03751 -0.18443,-9.05651 -0.23594,-12.02621 -0.42813,-24.05284 -0.39651,-36.08198 -0.071,-18.01455 -0.18907,-36.028937 -0.21209,-54.043646 0.0215,-9.553839 -0.0158,-19.110322 0.19439,-28.66228 0,0 -3.49957,-1.783125 -3.49957,-1.783125 z" />
    <path
       style="fill:#000000;stroke-width:0.264583"
       id="path110"
       d="m 191.13826,42.205129 c 6.37136,-0.593937 12.79034,-0.56951 19.18422,-0.658596 15.46884,0.09945 30.93932,0.218311 46.40668,0.470445 5.45694,0.103143 10.91328,0.235022 16.36907,0.386951 2.27264,0.06329 4.52017,0.119798 6.77976,0.36377 0.30261,0.13538 1.20515,0.552717 0.90781,0.406141 -0.92556,-0.456261 -1.77834,-1.146881 -2.79288,-1.335402 -0.30801,-0.05723 0.26222,0.573555 0.33403,0.878504 0.0941,0.399798 0.12867,0.812204 0.16053,1.2217 0.0797,1.024138 0.0596,2.60096 0.0615,3.582458 -0.10448,6.405258 -0.12449,12.810686 -0.12959,19.216679 0.0849,9.924185 -0.37952,19.840424 -0.69435,29.757008 -0.2966,8.595643 -0.38314,17.195703 -0.40132,25.795743 0.0156,7.3055 -0.0433,14.61086 -0.0927,21.91613 -0.0257,2.87042 -0.0459,5.74089 -0.0707,8.61132 -0.0111,1.34812 0.0347,2.69492 -0.10544,4.03728 -0.0666,0.87231 -0.23056,1.72572 -0.39063,2.58344 -0.18333,0.90385 -0.16423,1.82787 -0.25379,2.74115 -0.14105,0.94317 -0.19786,1.89371 -0.38074,2.83001 -0.14816,0.59265 -0.17539,1.20588 -0.29813,1.80203 0,0 3.49562,1.87759 3.49562,1.87759 v 0 c 0.13902,-0.5977 0.14658,-1.21728 0.29279,-1.81556 0.18526,-0.94805 0.25001,-1.90751 0.39032,-2.86291 0.10665,-0.9014 0.0781,-1.81547 0.24688,-2.7111 0.16036,-0.86989 0.3415,-1.7311 0.39253,-2.6178 0.14251,-1.36042 0.10909,-2.72195 0.0956,-4.0886 -0.0272,-2.89613 -0.0517,-5.79229 -0.0805,-8.68841 -0.0562,-7.3311 -0.11954,-14.66257 -0.0635,-21.99388 0.0528,-8.60675 0.10832,-17.21415 0.33679,-25.818437 0.28347,-9.909784 0.77954,-19.815236 0.7638,-29.731227 0.066,-6.371462 0.16097,-12.742756 0.33155,-19.112385 0.0302,-1.594882 0.16714,-3.278365 -0.0796,-4.866529 -0.0538,-0.346131 0.0106,-0.789448 -0.25326,-1.019871 -2.63009,-2.297078 -2.71971,-2.229093 -4.82013,-2.888279 -2.194,-0.156062 -4.37846,-0.162584 -6.57834,-0.182883 -5.35709,-0.04943 -10.7141,-0.108206 -16.0711,-0.167775 -15.5365,-0.1726 -31.0724,-0.370332 -46.60807,-0.607456 -6.5439,0.02733 -13.11045,-0.05889 -19.6391,0.431294 0,0 3.25446,2.257457 3.25446,2.257457 z" />
    <path
       style="fill:#000000;stroke-width:0.264583"
       id="path112"
       d="m 189.50434,166.23804 c 7.28404,-1.43288 14.77696,-1.4782 22.17323,-1.7123 11.72272,-0.26416 23.44926,-0.34106 35.17447,-0.26211 7.8488,0.079 15.69657,0.23122 23.54424,0.38191 1.99694,0.0377 3.99378,0.0842 5.99109,0.0978 0,0 -3.19315,-2.32101 -3.19315,-2.32101 v 0 c -1.94884,0.005 -3.89771,0.009 -5.84655,0.003 -7.75451,-0.0296 -15.50865,-0.10937 -23.26292,-0.17462 -11.72807,-0.0592 -23.45855,0.006 -35.184,0.2699 -4.20944,0.10962 -6.78575,0.15267 -10.93545,0.34964 -3.42022,0.16234 -6.87095,0.34204 -10.2582,0.87866 -0.49806,0.0789 -0.98873,0.19894 -1.4831,0.2984 0,0 3.28034,2.19087 3.28034,2.19087 z" />
    <text
       xml:space="preserve"
       transform="matrix(0.26458333,0,0,0.26458333,0,20.225806)"
       id="text249"
       style="font-size:64px;white-space:pre;shape-inside:url(#rect251);display:inline;fill:#000000"><tspan
         x="118.01953"
         y="140.19773"
         id="tspan455">Hasilnya seperti </tspan><tspan
         x="118.01953"
         y="220.19773"
         id="tspan457">ini</tspan></text>
  </g>
</svg>
