<?xml version="1.0" encoding="UTF-8" standalone="no"?>
<!-- Created with Inkscape (http://www.inkscape.org/) -->

<svg
   width="297mm"
   height="210mm"
   viewBox="0 0 297 210"
   version="1.1"
   id="svg5"
   inkscape:version="1.2.2 (732a01da63, 2022-12-09)"
   sodipodi:docname="kolam-toren-step-1.svg"
   xmlns:inkscape="http://www.inkscape.org/namespaces/inkscape"
   xmlns:sodipodi="http://sodipodi.sourceforge.net/DTD/sodipodi-0.dtd"
   xmlns="http://www.w3.org/2000/svg"
   xmlns:svg="http://www.w3.org/2000/svg">
  <sodipodi:namedview
     id="namedview7"
     pagecolor="#ffffff"
     bordercolor="#000000"
     borderopacity="0.25"
     inkscape:showpageshadow="2"
     inkscape:pageopacity="1"
     inkscape:pagecheckerboard="true"
     inkscape:deskcolor="#d1d1d1"
     inkscape:document-units="mm"
     showgrid="false"
     inkscape:zoom="0.74564394"
     inkscape:cx="628.98654"
     inkscape:cy="382.21996"
     inkscape:window-width="1920"
     inkscape:window-height="1017"
     inkscape:window-x="-8"
     inkscape:window-y="-8"
     inkscape:window-maximized="1"
     inkscape:current-layer="layer1"
     shape-rendering="auto" />
  <defs
     id="defs2">
    <rect
       x="118.0188"
       y="81.808484"
       width="544.49581"
       height="519.01448"
       id="rect251" />
  </defs>
  <g
     inkscape:label="Layer 1"
     inkscape:groupmode="layer"
     id="layer1">
    <path
       style="fill:#000000;stroke-width:0.264583"
       id="path108"
       d="m 186.66956,35.668709 c 0.16177,9.675516 0.36194,19.350648 0.51577,29.026537 0.20572,18.00307 0.17343,36.007624 0.15276,54.011504 -0.0652,11.97163 -0.003,23.94304 0.059,35.91449 0.022,2.98989 0.0215,5.97984 0.0155,8.96977 0,0 3.35515,1.70524 3.35515,1.70524 v 0 c -0.0669,-3.01872 -0.13121,-6.03751 -0.18443,-9.05651 -0.23594,-12.02621 -0.42813,-24.05284 -0.39651,-36.08198 -0.071,-18.01455 -0.18907,-36.028937 -0.21209,-54.043646 0.0215,-9.553839 -0.0158,-19.110322 0.19439,-28.66228 0,0 -3.49957,-1.783125 -3.49957,-1.783125 z" />
    <path
       style="fill:#000000;stroke-width:0.264583"
       id="path110"
       d="m 191.13826,42.205129 c 6.37136,-0.593937 12.79034,-0.56951 19.18422,-0.658596 15.46884,0.09945 30.93932,0.218311 46.40668,0.470445 5.45694,0.103143 10.91328,0.235022 16.36907,0.386951 2.27264,0.06329 4.52017,0.119798 6.77976,0.36377 0.30261,0.13538 1.20515,0.552717 0.90781,0.406141 -0.92556,-0.456261 -1.77834,-1.146881 -2.79288,-1.335402 -0.30801,-0.05723 0.26222,0.573555 0.33403,0.878504 0.0941,0.399798 0.12867,0.812204 0.16053,1.2217 0.0797,1.024138 0.0596,2.60096 0.0615,3.582458 -0.10448,6.405258 -0.12449,12.810686 -0.12959,19.216679 0.0849,9.924185 -0.37952,19.840424 -0.69435,29.757008 -0.2966,8.595643 -0.38314,17.195703 -0.40132,25.795743 0.0156,7.3055 -0.0433,14.61086 -0.0927,21.91613 -0.0257,2.87042 -0.0459,5.74089 -0.0707,8.61132 -0.0111,1.34812 0.0347,2.69492 -0.10544,4.03728 -0.0666,0.87231 -0.23056,1.72572 -0.39063,2.58344 -0.18333,0.90385 -0.16423,1.82787 -0.25379,2.74115 -0.14105,0.94317 -0.19786,1.89371 -0.38074,2.83001 -0.14816,0.59265 -0.17539,1.20588 -0.29813,1.80203 0,0 3.49562,1.87759 3.49562,1.87759 v 0 c 0.13902,-0.5977 0.14658,-1.21728 0.29279,-1.81556 0.18526,-0.94805 0.25001,-1.90751 0.39032,-2.86291 0.10665,-0.9014 0.0781,-1.81547 0.24688,-2.7111 0.16036,-0.86989 0.3415,-1.7311 0.39253,-2.6178 0.14251,-1.36042 0.10909,-2.72195 0.0956,-4.0886 -0.0272,-2.89613 -0.0517,-5.79229 -0.0805,-8.68841 -0.0562,-7.3311 -0.11954,-14.66257 -0.0635,-21.99388 0.0528,-8.60675 0.10832,-17.21415 0.33679,-25.818437 0.28347,-9.909784 0.77954,-19.815236 0.7638,-29.731227 0.066,-6.371462 0.16097,-12.742756 0.33155,-19.112385 0.0302,-1.594882 0.16714,-3.278365 -0.0796,-4.866529 -0.0538,-0.346131 0.0106,-0.789448 -0.25326,-1.019871 -2.63009,-2.297078 -2.71971,-2.229093 -4.82013,-2.888279 -2.194,-0.156062 -4.37846,-0.162584 -6.57834,-0.182883 -5.35709,-0.04943 -10.7141,-0.108206 -16.0711,-0.167775 -15.5365,-0.1726 -31.0724,-0.370332 -46.60807,-0.607456 -6.5439,0.02733 -13.11045,-0.05889 -19.6391,0.431294 0,0 3.25446,2.257457 3.25446,2.257457 z" />
    <path
       style="fill:#000000;stroke-width:0.264583"
       id="path112"
       d="m 189.50434,166.23804 c 7.28404,-1.43288 14.77696,-1.4782 22.17323,-1.7123 11.72272,-0.26416 23.44926,-0.34106 35.17447,-0.26211 7.8488,0.079 15.69657,0.23122 23.54424,0.38191 1.99694,0.0377 3.99378,0.0842 5.99109,0.0978 0,0 -3.19315,-2.32101 -3.19315,-2.32101 v 0 c -1.94884,0.005 -3.89771,0.009 -5.84655,0.003 -7.75451,-0.0296 -15.50865,-0.10937 -23.26292,-0.17462 -11.72807,-0.0592 -23.45855,0.006 -35.184,0.2699 -4.20944,0.10962 -6.78575,0.15267 -10.93545,0.34964 -3.42022,0.16234 -6.87095,0.34204 -10.2582,0.87866 -0.49806,0.0789 -0.98873,0.19894 -1.4831,0.2984 0,0 3.28034,2.19087 3.28034,2.19087 z" />
    <path
       style="fill:#000000;stroke-width:0.264583"
       id="path114"
       d="m 191.1299,40.623368 c 1.28849,-1.837434 2.86452,-3.462518 4.53478,-4.954185 1.22403,-1.076251 2.52967,-2.05114 3.95107,-2.848759 1.19586,-0.520631 2.49657,-0.800877 3.77178,-1.063249 1.96585,-0.454454 3.97711,-0.620461 5.98668,-0.727787 1.64207,-0.0739 3.28607,-0.07587 4.92943,-0.07684 1.48562,-0.0016 2.97123,0.0062 4.45684,0.0061 1.23436,0.004 2.46872,0.0052 3.70308,0.0073 1.01323,-1.1e-5 2.02646,0.003 3.03969,0.0011 1.59481,-0.0098 3.18963,-0.01056 4.78446,-0.0118 2.05046,0.0021 4.1009,-0.006 6.15135,-0.008 2.05127,-0.0097 4.09856,-0.02027 6.14553,0.11838 1.74229,0.08139 3.46965,0.317481 5.20819,0.448188 1.81157,0.248418 3.63391,0.37324 5.45987,0.445022 1.84211,0.0032 3.67586,0.173275 5.5127,0.290242 1.55186,0.08579 3.10604,0.113493 4.65991,0.131405 1.05148,0.01262 2.10303,0.01069 3.15454,0.0055 1.42761,-0.0084 2.85525,-0.0037 4.28286,-0.0062 1.15969,0.02673 2.32579,-0.105074 3.45871,0.183288 0.1659,0.05829 0.33354,0.111905 0.49771,0.174865 0.38367,0.147114 1.46616,0.740894 1.11032,0.535448 -5.27047,-3.042904 -2.42236,-1.41002 -1.2946,-0.545105 1.01068,0.845471 2.06102,1.677898 2.88679,2.712699 0.82433,1.337654 0.94019,2.967013 1.18901,4.485253 0.19309,1.246934 0.10353,0.637067 0.26998,1.829409 0,0 3.50964,1.726306 3.50964,1.726306 v 0 c -0.17367,-1.201539 -0.082,-0.587648 -0.2758,-1.841556 -0.25527,-1.556626 -0.35184,-3.200273 -1.06812,-4.630587 -0.74623,-1.127754 -1.87915,-1.938099 -2.88039,-2.82563 -2.09476,-1.725086 -4.48564,-3.223954 -7.09205,-4.008454 -1.1531,-0.191341 -2.3228,-0.07842 -3.4871,-0.103282 -1.43187,-0.0021 -2.86374,0.0035 -4.29559,-0.0027 -1.04895,-0.0035 -2.09789,-0.0011 -3.14684,-0.0052 -1.54429,-0.01289 -3.08901,-0.04087 -4.63076,-0.136147 -1.83565,-0.1168 -3.66952,-0.262924 -5.50994,-0.27804 -1.82489,-0.08383 -3.64269,-0.238487 -5.45629,-0.459758 -1.73696,-0.142317 -3.466,-0.370801 -5.20868,-0.440995 -2.04535,-0.118909 -4.09139,-0.0917 -6.13955,-0.08369 -2.05783,-0.0021 -4.11563,-0.01013 -6.17347,-0.008 -1.60564,-0.0013 -3.21128,-0.0021 -4.8169,-0.01175 -1.01227,-0.0019 -2.02452,0.0011 -3.03679,0.0011 -1.22913,0.0019 -2.45827,0.0024 -3.6874,0.0036 -1.48584,-0.0036 -2.9717,-0.0028 -4.45754,-0.0052 -1.63955,0.0044 -3.27968,0.02077 -4.91711,0.112276 -2.02859,0.121787 -4.05378,0.318129 -6.04122,0.760785 -1.30892,0.278059 -2.64897,0.550693 -3.8506,1.158613 -1.42522,0.830982 -2.73164,1.841241 -3.95818,2.943752 -1.68236,1.536157 -3.26064,3.197862 -4.63751,5.015579 0,0 3.40751,1.986973 3.40751,1.986973 z" />
    <path
       style="fill:#000000;stroke-width:0.264583"
       id="path126"
       d="m 211.40091,20.851609 c 0.33874,1.641259 0.62793,3.28878 0.82411,4.95326 0.0373,0.562711 0.18575,1.054824 0.43777,1.550185 0,0 3.62411,1.589042 3.62411,1.589042 v 0 c -0.35656,-0.419732 -0.48868,-0.842185 -0.5458,-1.40035 -0.20395,-1.665179 -0.49624,-3.313734 -0.78006,-4.965814 0,0 -3.56013,-1.726323 -3.56013,-1.726323 z" />
    <path
       style="fill:#000000;stroke-width:0.264583"
       id="path128"
       d="m 253.27188,22.625802 c 0.38575,1.506022 0.6609,3.035289 0.85195,4.577256 0.0736,0.739003 0.0423,0.380109 0.0954,1.076553 0,0 3.53189,1.765493 3.53189,1.765493 v 0 c -0.0555,-0.711909 -0.0227,-0.345186 -0.10011,-1.100018 -0.19647,-1.544101 -0.47387,-3.074996 -0.819,-4.59296 0,0 -3.56012,-1.726324 -3.56012,-1.726324 z" />
    <path
       style="fill:#000000;stroke-width:0.264583"
       id="path130"
       d="m 214.82756,23.757434 c 3.6491,-0.660646 7.37194,-0.747612 11.06901,-0.871644 4.81327,-0.13222 9.62879,-0.137092 14.44349,-0.128632 2.42878,0.0023 4.85744,0.02886 7.28619,0.03575 1.49932,0.0016 2.99863,0.0065 4.49795,0.0086 1.06132,0.0016 2.12263,0.0038 3.18395,0.0062 0,0 -3.20032,-2.325156 -3.20032,-2.325156 v 0 c -1.05565,0.0024 -2.1113,0.0047 -3.16695,0.006 -1.49353,0.0016 -2.98705,0.0053 -4.48057,0.0035 -2.39991,10e-4 -4.79976,0.01963 -7.19964,0.02866 -4.80134,0.02779 -9.60301,0.05934 -14.40326,0.172049 -3.76332,0.119554 -7.54203,0.215204 -11.26869,0.799307 0,0 3.23884,2.265292 3.23884,2.265292 z" />
    <text
       xml:space="preserve"
       transform="matrix(0.26458333,0,0,0.26458333,0,20.225806)"
       id="text249"
       style="font-size:64px;white-space:pre;shape-inside:url(#rect251);fill:#000000"><tspan
         x="118.01953"
         y="140.19773"
         id="tspan138">Siapkan Sebuah </tspan><tspan
         x="118.01953"
         y="220.19773"
         id="tspan140">Toren Air</tspan></text>
  </g>
</svg>
