<?xml version="1.0" encoding="UTF-8" standalone="no"?>
<!-- Created with Inkscape (http://www.inkscape.org/) -->

<svg
   width="297mm"
   height="210mm"
   viewBox="0 0 297 210"
   version="1.1"
   id="svg5"
   inkscape:version="1.2.2 (732a01da63, 2022-12-09)"
   sodipodi:docname="kolam-toren-step-4.svg"
   xmlns:inkscape="http://www.inkscape.org/namespaces/inkscape"
   xmlns:sodipodi="http://sodipodi.sourceforge.net/DTD/sodipodi-0.dtd"
   xmlns="http://www.w3.org/2000/svg"
   xmlns:svg="http://www.w3.org/2000/svg">
  <sodipodi:namedview
     id="namedview7"
     pagecolor="#ffffff"
     bordercolor="#000000"
     borderopacity="0.25"
     inkscape:showpageshadow="2"
     inkscape:pageopacity="0.0"
     inkscape:pagecheckerboard="0"
     inkscape:deskcolor="#d1d1d1"
     inkscape:document-units="mm"
     showgrid="false"
     inkscape:zoom="0.74564394"
     inkscape:cx="628.98654"
     inkscape:cy="382.21996"
     inkscape:window-width="1920"
     inkscape:window-height="1017"
     inkscape:window-x="-8"
     inkscape:window-y="-8"
     inkscape:window-maximized="1"
     inkscape:current-layer="layer1" />
  <defs
     id="defs2">
    <rect
       x="118.0188"
       y="81.808484"
       width="572.65939"
       height="714.81839"
       id="rect251" />
  </defs>
  <g
     inkscape:label="Layer 1"
     inkscape:groupmode="layer"
     id="layer1">
    <path
       style="fill:#000000;stroke-width:0.264583"
       id="path108"
       d="m 186.66956,35.668709 c 0.16177,9.675516 0.36194,19.350648 0.51577,29.026537 0.20572,18.00307 0.17343,36.007624 0.15276,54.011504 -0.0652,11.97163 -0.003,23.94304 0.059,35.91449 0.022,2.98989 0.0215,5.97984 0.0155,8.96977 0,0 3.35515,1.70524 3.35515,1.70524 v 0 c -0.0669,-3.01872 -0.13121,-6.03751 -0.18443,-9.05651 -0.23594,-12.02621 -0.42813,-24.05284 -0.39651,-36.08198 -0.071,-18.01455 -0.18907,-36.028937 -0.21209,-54.043646 0.0215,-9.553839 -0.0158,-19.110322 0.19439,-28.66228 0,0 -3.49957,-1.783125 -3.49957,-1.783125 z" />
    <path
       style="fill:#000000;stroke-width:0.264583"
       id="path110"
       d="m 191.13826,42.205129 c 6.37136,-0.593937 12.79034,-0.56951 19.18422,-0.658596 15.46884,0.09945 30.93932,0.218311 46.40668,0.470445 5.45694,0.103143 10.91328,0.235022 16.36907,0.386951 2.27264,0.06329 4.52017,0.119798 6.77976,0.36377 0.30261,0.13538 1.20515,0.552717 0.90781,0.406141 -0.92556,-0.456261 -1.77834,-1.146881 -2.79288,-1.335402 -0.30801,-0.05723 0.26222,0.573555 0.33403,0.878504 0.0941,0.399798 0.12867,0.812204 0.16053,1.2217 0.0797,1.024138 0.0596,2.60096 0.0615,3.582458 -0.10448,6.405258 -0.12449,12.810686 -0.12959,19.216679 0.0849,9.924185 -0.37952,19.840424 -0.69435,29.757008 -0.2966,8.595643 -0.38314,17.195703 -0.40132,25.795743 0.0156,7.3055 -0.0433,14.61086 -0.0927,21.91613 -0.0257,2.87042 -0.0459,5.74089 -0.0707,8.61132 -0.0111,1.34812 0.0347,2.69492 -0.10544,4.03728 -0.0666,0.87231 -0.23056,1.72572 -0.39063,2.58344 -0.18333,0.90385 -0.16423,1.82787 -0.25379,2.74115 -0.14105,0.94317 -0.19786,1.89371 -0.38074,2.83001 -0.14816,0.59265 -0.17539,1.20588 -0.29813,1.80203 0,0 3.49562,1.87759 3.49562,1.87759 v 0 c 0.13902,-0.5977 0.14658,-1.21728 0.29279,-1.81556 0.18526,-0.94805 0.25001,-1.90751 0.39032,-2.86291 0.10665,-0.9014 0.0781,-1.81547 0.24688,-2.7111 0.16036,-0.86989 0.3415,-1.7311 0.39253,-2.6178 0.14251,-1.36042 0.10909,-2.72195 0.0956,-4.0886 -0.0272,-2.89613 -0.0517,-5.79229 -0.0805,-8.68841 -0.0562,-7.3311 -0.11954,-14.66257 -0.0635,-21.99388 0.0528,-8.60675 0.10832,-17.21415 0.33679,-25.818437 0.28347,-9.909784 0.77954,-19.815236 0.7638,-29.731227 0.066,-6.371462 0.16097,-12.742756 0.33155,-19.112385 0.0302,-1.594882 0.16714,-3.278365 -0.0796,-4.866529 -0.0538,-0.346131 0.0106,-0.789448 -0.25326,-1.019871 -2.63009,-2.297078 -2.71971,-2.229093 -4.82013,-2.888279 -2.194,-0.156062 -4.37846,-0.162584 -6.57834,-0.182883 -5.35709,-0.04943 -10.7141,-0.108206 -16.0711,-0.167775 -15.5365,-0.1726 -31.0724,-0.370332 -46.60807,-0.607456 -6.5439,0.02733 -13.11045,-0.05889 -19.6391,0.431294 0,0 3.25446,2.257457 3.25446,2.257457 z" />
    <path
       style="fill:#000000;stroke-width:0.264583"
       id="path112"
       d="m 189.50434,166.23804 c 7.28404,-1.43288 14.77696,-1.4782 22.17323,-1.7123 11.72272,-0.26416 23.44926,-0.34106 35.17447,-0.26211 7.8488,0.079 15.69657,0.23122 23.54424,0.38191 1.99694,0.0377 3.99378,0.0842 5.99109,0.0978 0,0 -3.19315,-2.32101 -3.19315,-2.32101 v 0 c -1.94884,0.005 -3.89771,0.009 -5.84655,0.003 -7.75451,-0.0296 -15.50865,-0.10937 -23.26292,-0.17462 -11.72807,-0.0592 -23.45855,0.006 -35.184,0.2699 -4.20944,0.10962 -6.78575,0.15267 -10.93545,0.34964 -3.42022,0.16234 -6.87095,0.34204 -10.2582,0.87866 -0.49806,0.0789 -0.98873,0.19894 -1.4831,0.2984 0,0 3.28034,2.19087 3.28034,2.19087 z" />
    <text
       xml:space="preserve"
       transform="matrix(0.26458333,0,0,0.26458333,-26.258065,-9.9354843)"
       id="text249"
       style="font-size:64px;white-space:pre;shape-inside:url(#rect251);display:inline;fill:#000000"><tspan
         x="118.01953"
         y="140.19773"
         id="tspan493">Pasang pipa </tspan><tspan
         x="118.01953"
         y="220.19773"
         id="tspan495">mengarah ke </tspan><tspan
         x="118.01953"
         y="300.19773"
         id="tspan497">atas.
</tspan><tspan
         x="118.01953"
         y="380.19773"
         id="tspan499">
</tspan><tspan
         x="118.01953"
         y="460.19773"
         id="tspan501">Ketinggian air </tspan><tspan
         x="118.01953"
         y="540.19773"
         id="tspan503">akan bergantung </tspan><tspan
         x="118.01953"
         y="620.19773"
         id="tspan505">kemiringan pipa </tspan><tspan
         x="118.01953"
         y="700.19773"
         id="tspan507">tersebut.</tspan></text>
    <path
       style="fill:#000000;stroke-width:0.264583"
       id="path475"
       d="m 173.53295,51.46281 c 0.0131,3.093765 0.0962,6.184045 0.26101,9.273495 0.25962,3.959518 0.38837,7.924945 0.46469,11.891642 0.07,4.089754 0.0504,8.180281 0.0445,12.270427 0.0379,3.944258 -0.30639,7.880123 -0.60678,11.80955 -0.33125,3.322116 -0.60104,6.647506 -0.73912,9.983316 -0.0922,2.95248 -0.1,5.90671 -0.0991,8.86035 0.005,2.78342 7.9e-4,5.56686 -0.009,8.35026 -0.003,1.90141 -0.009,3.8028 -0.0161,5.70419 -0.0378,1.84376 0.0443,3.68187 0.16083,5.52107 0.0908,1.6152 0.3182,3.21727 0.43383,4.83082 0.11214,1.85625 0.27727,3.70831 0.37399,5.56574 0.0697,1.37987 0.079,2.7615 0.0863,4.14277 0.002,0.89479 -0.006,1.78957 -0.005,2.68437 0.0186,0.64711 -0.17612,1.53536 0.50804,1.92913 1.26692,0.72916 2.56786,1.39754 3.85179,2.09632 1.54159,0.24684 3.11203,0.20419 4.66826,0.20869 1.62327,-0.002 3.24653,-0.004 4.8698,-0.003 0.67345,5.3e-4 0.35207,0.023 0.96483,-0.0564 0,0 -3.22529,-2.29298 -3.22529,-2.29298 v 0 c -0.58089,0.0435 -0.27164,0.0295 -0.92806,0.0346 -1.61272,0.0134 -3.22547,0.0279 -4.83826,0.0216 -1.54131,-0.0118 -3.12274,0.0442 -4.62533,-0.3457 0.98383,0.58936 1.98361,1.15289 2.9515,1.76808 0.11772,0.0748 -0.27312,-0.0718 -0.39353,-0.14222 -0.0901,-0.0527 -0.178,-0.12511 -0.2239,-0.21883 -0.1741,-0.35548 0.0129,-0.83149 -0.054,-1.20218 0.004,-0.8976 -5.3e-4,-1.79522 -0.005,-2.69282 -0.0101,-1.39196 -0.0442,-2.78389 -0.10814,-4.17445 -0.10082,-1.85718 -0.27112,-3.7094 -0.36244,-5.56691 -0.10779,-1.61664 -0.33278,-3.2194 -0.44526,-4.83495 -0.12384,-1.82966 -0.22118,-3.65736 -0.16062,-5.49231 -0.007,-1.90758 -0.0139,-3.81515 -0.0198,-5.72273 -0.0132,-2.78784 -0.0244,-5.57573 -0.0189,-8.3636 0.007,-2.94926 5.3e-4,-5.89924 0.092,-8.84742 0.12364,-3.33749 0.36337,-6.66724 0.6941,-9.990822 0.29687,-3.936542 0.62979,-7.880167 0.63095,-11.829769 -0.009,-4.096557 -0.0345,-8.193037 -0.068,-12.289464 -0.0582,-3.968793 -0.18124,-7.935675 -0.44511,-11.896834 -0.15787,-3.061565 -0.24063,-6.126742 -0.14525,-9.192135 0,0 -3.51474,-1.790848 -3.51474,-1.790848 z" />
    <path
       style="fill:#000000;stroke-width:0.264583"
       id="path477"
       d="m 186.66748,161.00073 c -2.33066,0.0368 -4.66171,0.02 -6.99254,0.0183 -1.45994,-0.003 -2.91984,-0.0129 -4.37977,-0.019 -0.96268,0.0488 -1.91145,-0.0924 -2.86841,-0.1691 -1.4126,-0.24265 -2.86202,-0.25811 -4.26776,-0.53162 -1.72208,-0.98035 2.09976,1.19781 2.70682,1.48159 0.13179,0.0616 -0.17948,-0.23269 -0.23777,-0.36599 -0.26991,-0.61722 -0.26928,-1.35274 -0.31826,-2.00951 0.0126,-2.12044 0.17546,-4.23637 0.23777,-6.35584 0.0617,-2.16232 0.0839,-4.32551 0.0937,-6.48861 0.007,-1.64347 0.009,-3.28694 0.0139,-4.93041 -0.008,-1.87048 -0.0138,-3.74097 -0.0195,-5.61145 -0.003,-2.14413 0.003,-4.28825 0.005,-6.43237 0.007,-2.03425 -0.005,-4.06849 -0.004,-6.10274 0.005,-2.06484 -0.002,-4.12969 0.004,-6.19452 0.009,-2.06238 -0.005,-4.12472 -0.01,-6.18708 -1.7e-4,-2.58288 -0.005,-5.16572 -0.008,-7.74859 0.003,-2.36805 0.0135,-4.7361 0.0133,-7.104153 -0.007,-2.695625 -0.016,-5.39125 -0.019,-8.086881 0.002,-2.856896 0.003,-5.713791 0.007,-8.570685 0.004,-2.453579 0.007,-4.907155 0.009,-7.36074 0.0529,-2.067901 -0.0234,-4.130182 -0.14757,-6.193641 -0.0714,-1.717313 -0.16395,-3.430043 -0.32694,-5.141167 -0.0636,-1.234032 -0.26287,-2.452613 -0.40332,-3.678589 -0.11952,-1.071438 -0.27417,-2.141051 -0.4425,-3.206176 -0.33209,-1.531046 -0.005,-1.493618 1.38786,-1.909389 1.30436,-0.317283 2.64266,-0.435018 3.97868,-0.517859 0,0 -3.19619,-2.287645 -3.19619,-2.287645 v 0 c -1.35345,0.108775 -2.70915,0.250227 -4.0263,0.595929 -1.45411,0.475493 -2.07255,0.757896 -1.68827,2.387459 0.1914,1.054439 0.30719,2.126274 0.45356,3.187362 0.13756,1.227867 0.35566,2.444747 0.41705,3.680412 0.18523,1.709947 0.29623,3.420555 0.35929,5.139539 0.12683,2.059215 0.22386,4.116007 0.1738,6.180373 0.002,2.456757 0.005,4.913508 0.009,7.37026 0.003,2.859122 0.005,5.718241 0.007,8.577365 -0.003,2.68918 -0.0119,5.378355 -0.019,8.067527 -2.2e-4,2.372585 0.0102,4.745165 0.0133,7.117749 -0.003,2.5802 -0.008,5.16039 -0.008,7.74061 -0.005,2.05896 -0.0192,4.1179 -0.01,6.17689 0.006,2.06626 -8e-4,4.13255 0.004,6.19882 0.001,2.03304 -0.0104,4.06608 -0.004,6.09913 0.002,2.14582 0.008,4.29163 0.005,6.43745 -0.005,1.86436 -0.0113,3.72872 -0.017,5.59308 0.007,1.64724 0.0113,3.29451 0.0117,4.94175 -0.004,2.16253 -0.008,4.32537 -0.0714,6.48717 -0.0768,2.125 -0.20657,4.24703 -0.29008,6.37154 0.1635,3.05726 0.40562,3.84406 4.50919,5.02389 1.42058,0.19493 2.85433,0.29369 4.27416,0.49919 0.96711,0.0941 1.9306,0.20424 2.90448,0.15228 1.44246,-0.006 2.88491,-0.0158 4.32739,-0.019 2.3476,-0.002 4.69542,-0.0182 7.04285,0.0183 0,0 -3.19475,-2.32112 -3.19475,-2.32112 z" />
  </g>
</svg>
